<svg width="36" height="36" viewBox="0 0 36 36" fill="none" xmlns="http://www.w3.org/2000/svg">
<g clip-path="url(#clip0_13607_96)">
<path d="M18.0107 2.92949C21.1364 6.89757 22.8049 11.7909 22.7444 16.812V18.0106L23.7756 18.6381C25.1081 19.4447 26.1018 20.6958 26.5758 22.1633C26.1597 21.857 25.7243 21.5767 25.2724 21.3243L22.5224 19.7803L22.0282 22.8966C21.9854 23.172 21.9281 23.445 21.8564 23.7145H14.1506C14.0361 23.3619 13.943 23.0094 13.857 22.6428L13.234 19.8226L10.6988 21.2327C10.2753 21.4695 9.86637 21.7308 9.47421 22.0153C9.95738 20.5647 10.9304 19.3206 12.2314 18.49L13.2125 17.8625V16.7485C13.2302 11.7478 14.9188 6.89171 18.0178 2.92949H18.0107ZM18.0178 -0.00352478C17.8571 -0.00313447 17.702 0.0544608 17.581 0.158637L17.5165 0.215042C13.3869 4.76211 11.0938 10.6419 11.0712 16.7415C9.31881 17.8608 8.02164 19.5508 7.4064 21.5162C6.79116 23.4815 6.89696 25.5972 7.70533 27.4935C8.5569 25.642 9.98044 24.1023 11.773 23.094C11.9528 23.8607 12.1922 24.6126 12.4892 25.3431C12.5268 25.4836 12.6103 25.6079 12.7268 25.6971C12.8432 25.7863 12.9862 25.8353 13.1337 25.8367H23.0738C23.2743 25.8367 23.4749 25.6463 23.5751 25.3502C23.8649 24.6557 24.067 23.9287 24.1767 23.1857C25.9727 24.1897 27.3974 25.7306 28.2444 27.5852C29.1015 25.6982 29.2342 23.5691 28.6179 21.5931C28.0015 19.6171 26.678 17.9283 24.8928 16.8402C24.9637 10.7046 22.6827 4.76827 18.5048 0.215042C18.4426 0.14656 18.3665 0.0917149 18.2813 0.0540623C18.1962 0.0164096 18.104 -0.00321003 18.0107 -0.00352478L18.0178 -0.00352478Z" fill="#4EA8DE"/>
<path d="M18.0106 16.1563C17.4605 16.1563 16.9228 15.9959 16.4651 15.6955C16.0075 15.3951 15.6504 14.9679 15.4389 14.468C15.2275 13.9681 15.1711 13.4177 15.2768 12.8863C15.3826 12.3549 15.6458 11.8661 16.0332 11.4817C16.4207 11.0973 16.9151 10.8345 17.454 10.7263C17.993 10.6181 18.5525 10.6694 19.0619 10.8737C19.5713 11.0781 20.0078 11.4263 20.3165 11.8745C20.6252 12.3228 20.7921 12.851 20.7964 13.3925V13.3925C20.805 13.7434 20.7432 14.0926 20.6147 14.42C20.4861 14.7474 20.2933 15.0467 20.0472 15.3008C19.8012 15.5548 19.5067 15.7586 19.1805 15.9006C18.8544 16.0425 18.5031 16.1198 18.1466 16.1281C18.1016 16.1352 18.0556 16.1352 18.0106 16.1281V16.1563Z" fill="#4EA8DE"/>
<path d="M21.8849 27.5922C21.7057 27.5866 21.5272 27.6163 21.3598 27.6795C21.1924 27.7427 21.0395 27.8381 20.9101 27.9603C20.7807 28.0824 20.6774 28.2288 20.6062 28.3908C20.535 28.5528 20.4974 28.7271 20.4956 28.9036V33.0635C20.4956 33.4262 20.642 33.7741 20.9025 34.0306C21.1631 34.2871 21.5165 34.4313 21.8849 34.4313C22.2534 34.4313 22.6068 34.2871 22.8673 34.0306C23.1279 33.7741 23.2743 33.4262 23.2743 33.0635V28.96C23.28 28.7842 23.2501 28.609 23.1863 28.4447C23.1226 28.2803 23.0263 28.1301 22.9029 28.0028C22.7796 27.8755 22.6318 27.7736 22.4681 27.7032C22.3044 27.6327 22.128 27.595 21.9494 27.5922H21.8849Z" fill="#5E60CE"/>
<path d="M14.1506 27.5922C13.9683 27.5828 13.786 27.6095 13.6145 27.6707C13.4429 27.732 13.2857 27.8267 13.152 27.949C13.0184 28.0714 12.9111 28.2189 12.8366 28.3829C12.7621 28.5469 12.7218 28.724 12.7183 28.9036V33.0635C12.7183 33.4262 12.8646 33.7741 13.1252 34.0306C13.3857 34.2872 13.7391 34.4313 14.1076 34.4313C14.4761 34.4313 14.8294 34.2872 15.09 34.0306C15.3505 33.7741 15.4969 33.4262 15.4969 33.0635V28.9601C15.5026 28.7842 15.4727 28.609 15.409 28.4447C15.3452 28.2804 15.2489 28.1301 15.1256 28.0028C15.0023 27.8755 14.8545 27.7737 14.6907 27.7032C14.527 27.6327 14.3507 27.595 14.172 27.5922H14.1506Z" fill="#5E60CE"/>
<path d="M17.9103 27.5922C17.7316 27.5885 17.5539 27.6195 17.3874 27.6833C17.2208 27.7472 17.0687 27.8428 16.9397 27.9646C16.8107 28.0863 16.7073 28.232 16.6355 28.3931C16.5636 28.5542 16.5247 28.7277 16.521 28.9036V34.6357C16.521 34.9985 16.6674 35.3464 16.9279 35.6029C17.1885 35.8594 17.5418 36.0035 17.9103 36.0035C18.2788 36.0035 18.6322 35.8594 18.8927 35.6029C19.1533 35.3464 19.2996 34.9985 19.2996 34.6357V28.9953C19.3054 28.8195 19.2755 28.6443 19.2117 28.4799C19.148 28.3156 19.0516 28.1654 18.9283 28.0381C18.805 27.9108 18.6572 27.8089 18.4935 27.7384C18.3298 27.6679 18.1534 27.6302 17.9748 27.6275L17.9103 27.5922Z" fill="#5E60CE"/>
</g>
<defs>
<clipPath id="clip0_13607_96">
<rect width="36" height="36" fill="white" transform="translate(0.00561523)"/>
</clipPath>
</defs>
</svg>
